<!DOCTYPE svg PUBLIC "-//W3C//DTD SVG 20010904//EN" "http://www.w3.org/TR/2001/REC-SVG-20010904/DTD/svg10.dtd">
<svg version="1.0" xmlns="http://www.w3.org/2000/svg" width="1160px" height="1160px" viewBox="0 0 11600 11600" preserveAspectRatio="xMidYMid meet">
<g id="layer101" fill="#295796" stroke="none">
 <path d="M3050 11575 c-13 -14 -21 -27 -18 -30 2 -3 31 4 63 15 32 11 69 20 82 20 12 0 23 5 23 10 0 6 -28 10 -63 10 -55 0 -67 -3 -87 -25z"/>
 <path d="M6607 11352 l-78 -57 5 -130 c3 -71 5 -139 6 -150 1 -11 1 -42 1 -70 1 -27 4 -189 7 -360 l7 -310 -55 -55 c-30 -30 -91 -86 -135 -123 -93 -79 -93 -79 -184 -177 -38 -41 -89 -89 -112 -105 -23 -17 -56 -45 -73 -63 -17 -19 -43 -40 -58 -48 -16 -8 -28 -20 -28 -28 0 -14 -41 -56 -56 -56 -5 0 -18 -13 -28 -29 -11 -16 -44 -48 -73 -72 -30 -24 -109 -96 -176 -160 -67 -64 -151 -140 -187 -170 -36 -29 -90 -80 -120 -112 -30 -32 -100 -97 -155 -145 -55 -47 -147 -133 -205 -192 -58 -58 -118 -114 -135 -124 -16 -11 -88 -77 -160 -147 -71 -71 -168 -160 -215 -200 -47 -40 -98 -89 -113 -111 -16 -21 -32 -38 -37 -38 -4 0 -33 -25 -63 -55 -30 -30 -62 -55 -71 -55 -21 0 -71 25 -114 58 -38 29 -105 39 -155 23 -32 -11 -41 -9 -94 17 -32 17 -74 44 -93 61 -94 82 -239 159 -277 147 -22 -7 -148 -128 -171 -164 -9 -15 -71 -83 -137 -152 -66 -69 -138 -145 -160 -169 -22 -25 -76 -82 -121 -126 -44 -45 -106 -113 -136 -151 -31 -38 -69 -81 -85 -96 -194 -186 -321 -323 -341 -370 -22 -51 -14 -58 141 -123 49 -20 103 -45 120 -56 18 -10 39 -21 47 -25 40 -15 89 -41 126 -67 40 -27 42 -31 37 -70 -3 -23 -11 -55 -18 -72 -16 -35 -132 -151 -189 -188 -46 -31 -176 -154 -176 -168 0 -5 -6 -9 -12 -9 -7 0 -38 -25 -68 -55 -29 -30 -58 -55 -64 -55 -7 0 -79 -62 -141 -121 -5 -6 -21 -20 -35 -32 -13 -12 -56 -52 -95 -88 -38 -36 -79 -71 -89 -76 -19 -11 -154 -133 -253 -230 -30 -29 -58 -53 -64 -53 -5 0 -31 -20 -57 -44 -26 -24 -57 -47 -69 -50 -13 -4 -23 -14 -23 -22 0 -14 -71 -86 -132 -133 -30 -24 -39 -25 -82 -11 -123 38 -239 71 -286 80 -30 6 -68 17 -84 25 -15 8 -42 15 -60 15 -36 0 -52 -27 -66 -113 -5 -28 -13 -74 -19 -102 -5 -27 -15 -88 -21 -135 -7 -47 -16 -101 -21 -120 -4 -19 -13 -64 -18 -100 -6 -36 -16 -96 -24 -135 -8 -38 -20 -104 -26 -145 -7 -41 -17 -100 -23 -130 -7 -30 -12 -59 -14 -65 -1 -5 -9 -62 -18 -125 -18 -117 -31 -193 -47 -265 -5 -22 -13 -69 -19 -105 -17 -108 -37 -214 -44 -230 -3 -8 -10 -49 -15 -90 -5 -41 -18 -115 -29 -165 -11 -49 -20 -101 -20 -115 0 -14 -11 -77 -26 -141 -14 -64 -26 -139 -26 -167 0 -45 4 -54 26 -69 31 -20 109 -39 247 -60 95 -15 100 -15 165 6 76 25 152 71 297 179 55 41 116 83 135 93 90 50 260 168 260 180 0 8 86 75 160 124 25 16 47 32 50 36 3 3 40 29 82 58 43 29 108 78 145 110 82 68 137 109 179 136 87 55 156 104 218 154 98 79 193 145 251 175 28 14 66 39 85 56 19 16 49 37 66 45 17 8 55 31 83 51 84 57 124 68 188 49 29 -9 67 -24 85 -34 18 -11 85 -31 148 -47 63 -15 133 -35 155 -45 22 -9 72 -27 110 -39 39 -13 82 -29 96 -36 l27 -13 -3 -223 c-3 -215 -10 -386 -20 -513 -10 -116 -26 -421 -31 -570 -2 -82 -8 -224 -13 -315 -9 -177 -3 -210 39 -210 10 0 29 -4 42 -9 87 -34 220 -65 279 -64 68 0 101 12 317 114 45 21 87 39 93 39 12 0 95 39 397 186 106 52 196 94 200 94 4 0 34 13 67 29 33 16 98 48 145 69 47 22 155 74 240 115 85 41 214 99 285 130 115 49 211 96 365 178 25 14 72 35 105 48 100 38 137 56 467 215 86 42 160 76 164 76 4 0 35 13 68 29 34 16 84 39 111 51 54 23 265 124 305 145 49 27 257 125 264 125 4 0 25 8 49 19 179 79 284 126 293 133 32 23 320 159 409 193 76 30 146 64 165 80 8 7 35 21 60 30 42 16 73 30 160 74 63 33 234 109 268 120 18 6 46 19 61 31 16 11 32 20 36 20 3 0 76 34 162 75 86 41 166 78 179 81 13 3 24 10 24 15 0 5 5 9 11 9 9 0 40 13 124 50 80 36 115 50 122 50 4 0 50 21 103 47 52 25 111 53 130 62 19 9 51 25 70 37 19 12 46 24 60 29 29 8 74 27 145 60 28 13 63 27 79 31 26 6 107 46 131 63 6 4 26 14 45 21 32 12 156 71 205 98 50 27 193 92 202 92 15 0 77 33 81 43 2 4 10 7 18 7 17 0 302 146 325 166 8 8 20 14 26 14 6 0 61 26 124 58 135 69 144 84 77 129 -24 16 -61 38 -83 48 -22 11 -60 35 -84 54 -24 19 -51 35 -60 36 -26 3 -75 25 -94 43 -10 9 -34 21 -53 28 -43 15 -69 7 -163 -47 -36 -22 -69 -39 -74 -39 -4 0 -32 -18 -62 -40 -30 -22 -58 -40 -62 -40 -5 0 -32 -16 -62 -35 -29 -19 -57 -35 -62 -35 -5 0 -9 -3 -9 -8 0 -4 -21 -17 -47 -29 -146 -65 -169 -76 -183 -87 -8 -7 -35 -21 -60 -31 -25 -11 -64 -32 -88 -48 -23 -15 -57 -33 -75 -39 -17 -7 -52 -26 -77 -44 -25 -17 -56 -35 -70 -39 -53 -16 -286 -128 -375 -180 -33 -19 -76 -42 -95 -51 -19 -8 -87 -41 -150 -72 -63 -31 -131 -63 -150 -71 -34 -14 -105 -48 -255 -123 -163 -82 -334 -161 -375 -173 -14 -5 -41 -17 -60 -29 -19 -12 -46 -26 -60 -32 -14 -6 -52 -25 -85 -42 -33 -17 -89 -46 -125 -63 -36 -18 -84 -46 -107 -61 -23 -16 -57 -31 -74 -35 -18 -3 -73 -26 -121 -50 -49 -23 -94 -43 -101 -44 -7 0 -25 -9 -42 -19 -16 -11 -68 -37 -115 -60 -47 -22 -92 -45 -100 -50 -18 -12 -134 -68 -175 -84 -87 -35 -133 -57 -265 -124 -80 -40 -150 -79 -156 -87 -5 -7 -23 -17 -40 -21 -16 -4 -76 -31 -133 -61 -57 -29 -109 -53 -116 -53 -6 0 -38 -13 -71 -29 -32 -16 -74 -34 -93 -40 -18 -6 -56 -24 -82 -41 -27 -16 -52 -30 -56 -30 -6 0 -227 -106 -346 -166 -27 -13 -53 -24 -58 -24 -10 0 -119 -53 -239 -116 -41 -22 -113 -57 -160 -78 -47 -21 -96 -46 -110 -55 -14 -10 -41 -24 -60 -31 -19 -7 -100 -44 -180 -82 -152 -72 -170 -81 -235 -115 -92 -48 -168 -83 -180 -83 -7 0 -15 -4 -17 -8 -3 -8 -113 -62 -127 -62 -7 0 -93 -43 -156 -78 -32 -17 -262 -125 -359 -168 -49 -21 -178 -83 -285 -136 -148 -73 -199 -94 -209 -86 -10 9 -12 63 -7 267 9 410 15 623 20 630 5 8 17 334 20 551 3 201 10 248 39 261 27 12 94 56 138 90 18 15 51 37 74 50 23 13 75 47 115 74 91 61 106 70 146 90 17 9 39 25 49 36 9 10 22 19 28 19 6 0 36 19 66 41 68 52 278 189 289 189 12 0 95 47 171 97 36 24 69 43 73 43 8 0 23 11 58 42 10 10 22 18 25 18 4 0 27 15 53 34 25 18 71 46 102 60 30 15 82 47 115 71 32 24 74 54 93 67 19 13 46 35 60 49 15 14 42 34 61 44 19 10 37 21 40 25 5 6 90 57 160 94 19 11 46 28 60 38 47 36 193 128 201 128 5 0 9 4 9 9 0 5 12 12 26 15 15 4 34 15 43 26 9 10 45 34 81 52 90 47 220 131 252 163 29 29 65 49 243 140 61 31 121 67 135 79 14 13 39 32 55 42 17 10 48 32 70 49 22 17 60 41 85 55 25 13 47 26 50 30 3 3 21 14 40 24 73 37 95 49 100 56 3 3 34 26 69 51 36 24 76 55 90 68 37 33 101 76 141 95 54 24 119 64 148 91 15 14 32 25 38 25 6 0 19 9 29 20 9 10 40 31 69 46 28 15 65 39 81 53 17 15 69 48 115 75 47 27 109 64 137 82 29 19 55 34 58 34 6 0 162 105 185 125 8 7 60 39 115 70 55 32 137 82 182 111 45 30 84 54 87 54 3 0 38 23 77 51 39 28 87 59 107 70 21 11 44 24 52 30 8 5 51 29 95 53 45 24 126 74 181 112 55 38 109 74 119 81 30 18 161 94 219 126 28 16 67 41 86 55 19 15 56 38 83 50 26 13 47 27 47 32 0 8 86 61 215 131 44 24 85 49 90 55 6 7 33 25 60 40 28 15 71 42 96 60 26 19 51 34 55 34 5 0 35 14 66 30 l58 30 15 -36 c8 -20 15 -40 15 -44 0 -7 16 -59 80 -270 21 -69 50 -165 65 -215 14 -49 32 -104 40 -121 7 -17 16 -52 20 -78 4 -25 11 -49 16 -52 5 -3 9 -16 9 -29 0 -14 11 -57 24 -97 14 -40 34 -109 46 -153 12 -44 28 -93 35 -110 7 -16 20 -59 28 -95 21 -91 57 -213 66 -225 4 -5 14 -37 21 -70 7 -33 19 -79 26 -103 8 -23 14 -51 14 -60 0 -10 4 -22 9 -27 8 -9 40 -117 72 -245 6 -25 18 -57 25 -72 8 -14 14 -34 14 -45 0 -10 7 -31 15 -47 8 -15 15 -36 15 -46 0 -13 29 -34 98 -69 53 -28 104 -56 112 -61 8 -4 44 -23 80 -40 36 -17 87 -43 114 -59 65 -38 86 -32 86 25 0 24 -4 44 -9 44 -5 0 -15 26 -21 58 -7 31 -19 71 -26 89 -8 17 -14 38 -14 46 0 9 -11 46 -24 84 -13 37 -32 93 -41 123 -8 30 -20 64 -25 75 -14 31 -70 207 -70 220 0 6 -14 54 -30 106 -44 135 -76 237 -90 289 -14 52 -50 150 -60 165 -4 6 -13 33 -20 60 -8 28 -28 83 -47 123 -18 39 -33 77 -33 82 0 16 -40 133 -55 160 -7 14 -20 60 -29 104 -9 43 -21 86 -26 96 -5 10 -14 35 -19 56 -13 55 -80 235 -155 423 -14 35 -29 80 -32 100 -4 20 -10 41 -14 46 -3 6 -17 45 -31 89 -25 83 -47 112 -114 154 -22 14 -42 28 -45 32 -3 4 -41 32 -85 64 -44 31 -108 78 -142 104 -34 26 -101 76 -150 110 -48 35 -111 82 -140 105 -28 23 -80 64 -115 92 -34 27 -67 55 -71 63 -5 7 -28 22 -50 31 -23 10 -62 35 -87 55 -25 21 -54 44 -65 53 -11 9 -36 30 -56 47 -19 17 -46 38 -58 46 -12 8 -36 26 -53 40 -16 14 -49 39 -72 55 -92 65 -162 120 -179 142 -11 13 -38 33 -60 44 -23 12 -60 36 -82 53 -22 18 -49 36 -59 40 -26 9 -174 127 -245 194 -30 28 -59 52 -63 52 -9 0 -125 79 -173 118 -16 13 -43 33 -58 45 -15 12 -47 38 -71 57 -24 19 -85 64 -135 100 -49 36 -132 98 -183 138 -51 40 -122 93 -158 117 -115 78 -156 109 -246 185 -49 42 -137 111 -196 155 -60 43 -108 82 -108 87 0 4 -5 8 -12 8 -12 0 -63 36 -152 108 -29 23 -58 42 -63 42 -6 0 -13 7 -17 15 -3 8 -10 15 -16 15 -6 0 -26 11 -43 24 -18 13 -52 34 -77 47 -25 13 -56 32 -69 41 -39 29 -70 21 -154 -40z m57 -154 c3 -13 7 -84 11 -158 3 -74 10 -191 15 -260 5 -69 14 -192 19 -275 6 -82 15 -177 21 -210 6 -33 15 -112 20 -175 5 -63 16 -187 24 -275 8 -88 17 -203 21 -255 3 -52 10 -138 15 -190 26 -257 40 -403 46 -490 3 -52 10 -114 15 -137 5 -23 12 -86 15 -141 3 -54 9 -123 12 -153 l7 -54 80 -53 c44 -29 89 -58 100 -63 47 -23 171 -105 180 -118 3 -5 33 -26 68 -45 34 -20 73 -45 87 -55 57 -42 138 -90 162 -96 60 -15 59 14 -16 650 -9 72 -21 173 -27 225 -6 52 -17 145 -24 205 -8 61 -17 151 -20 200 -4 50 -10 113 -15 140 -5 28 -16 124 -25 215 -9 91 -21 199 -27 240 -6 41 -14 120 -19 175 -4 55 -13 141 -19 190 -5 50 -11 117 -13 150 -3 73 3 74 103 10 37 -24 85 -52 106 -63 22 -11 55 -36 76 -55 20 -19 61 -51 91 -70 30 -20 58 -40 61 -46 4 -5 50 -39 104 -75 53 -36 113 -80 134 -98 20 -18 47 -41 60 -51 104 -80 142 -107 149 -107 5 0 24 -13 42 -30 50 -46 94 -80 103 -80 5 -1 20 -14 34 -30 13 -17 29 -30 35 -30 5 0 37 -23 69 -51 33 -28 94 -72 136 -100 42 -27 85 -58 95 -69 10 -11 22 -20 28 -20 5 0 26 -15 47 -32 70 -61 115 -94 217 -161 56 -37 122 -84 146 -105 43 -36 246 -187 278 -207 52 -31 139 -97 139 -104 0 -5 19 -20 43 -34 23 -14 77 -51 119 -84 42 -32 93 -69 113 -83 20 -14 56 -41 80 -60 24 -19 67 -53 95 -75 79 -61 79 -67 12 -112 -71 -48 -91 -59 -121 -73 -13 -6 -39 -23 -56 -38 -53 -44 -78 -62 -88 -62 -5 0 -38 -20 -74 -45 -36 -25 -86 -56 -111 -69 -26 -14 -69 -40 -97 -60 -27 -20 -57 -36 -66 -36 -9 0 -24 -11 -33 -25 -9 -14 -38 -36 -65 -49 -26 -14 -61 -36 -77 -49 -16 -13 -54 -37 -84 -54 -86 -47 -234 -136 -245 -148 -10 -10 -71 -51 -170 -113 -27 -17 -55 -36 -62 -42 -7 -5 -14 -10 -17 -10 -5 0 -90 -50 -211 -125 -18 -11 -44 -28 -57 -38 -12 -10 -41 -30 -64 -45 -123 -81 -182 -119 -206 -132 -75 -42 -236 -144 -273 -173 -26 -19 -93 -61 -216 -132 -74 -43 -149 -91 -168 -108 -19 -16 -46 -35 -60 -41 -14 -6 -53 -29 -86 -51 -33 -22 -68 -44 -77 -50 -55 -33 -119 -71 -158 -92 -25 -14 -74 -49 -110 -77 -75 -60 -224 -156 -240 -156 -7 0 -24 -8 -38 -17 -15 -10 -34 -22 -43 -28 -9 -5 -49 -32 -89 -60 -40 -27 -91 -61 -114 -75 -22 -13 -50 -32 -60 -42 -10 -9 -69 -43 -130 -74 -61 -31 -125 -67 -143 -80 -17 -13 -36 -24 -41 -24 -6 0 -23 -14 -39 -30 -15 -17 -53 -47 -83 -67 -30 -20 -71 -48 -90 -63 -19 -14 -55 -35 -80 -45 -42 -18 -155 -86 -210 -127 -14 -10 -50 -35 -80 -55 -30 -21 -71 -49 -90 -64 -20 -15 -70 -45 -112 -67 -99 -52 -154 -87 -202 -129 -22 -18 -43 -33 -48 -33 -5 0 -14 -5 -21 -11 -7 -6 -41 -29 -76 -52 -62 -40 -78 -50 -111 -68 -147 -82 -173 -98 -210 -134 -19 -19 -46 -39 -60 -45 -49 -22 -80 -41 -80 -51 0 -5 -7 -9 -15 -9 -8 0 -15 -4 -15 -10 0 -5 -7 -10 -15 -10 -9 0 -28 -8 -43 -19 -15 -10 -72 -45 -127 -77 -102 -59 -167 -103 -173 -116 -2 -5 -10 -8 -18 -8 -8 0 -14 -4 -14 -9 0 -5 -9 -13 -21 -16 -11 -4 -35 -19 -52 -34 -18 -15 -94 -63 -171 -107 -76 -43 -140 -84 -143 -91 -3 -7 -26 -22 -51 -34 -26 -13 -65 -36 -86 -51 -44 -32 -103 -37 -148 -14 -15 8 -42 17 -60 21 -18 4 -37 11 -43 15 -5 4 -26 11 -45 14 -41 8 -56 14 -130 49 -49 23 -107 42 -243 79 -21 6 -41 17 -44 25 -6 14 53 83 70 83 6 0 42 26 81 57 110 89 155 123 165 123 5 0 16 6 23 13 7 7 31 24 53 37 22 13 68 48 103 77 34 29 67 53 72 53 5 0 27 17 48 38 47 44 112 92 167 121 22 12 67 44 100 71 33 27 77 60 97 72 21 13 38 28 39 33 0 9 119 93 172 122 12 7 47 33 77 58 30 25 60 45 65 45 6 0 27 16 46 36 18 20 48 43 64 51 17 8 44 28 60 43 17 15 57 42 89 60 33 18 64 36 70 41 6 5 25 20 42 34 18 14 36 25 40 25 5 0 40 30 78 65 38 36 75 65 82 65 7 0 19 6 26 14 8 7 68 50 135 95 67 45 124 89 127 97 3 8 11 14 19 14 7 0 26 14 42 30 16 17 34 30 39 30 6 0 36 20 66 45 30 25 59 45 65 45 5 0 21 10 35 21 14 11 51 38 83 60 32 22 79 60 106 83 27 24 95 74 152 111 57 37 130 88 161 112 31 23 59 43 62 43 4 0 21 15 39 34 18 19 58 50 88 71 30 20 77 53 105 73 28 20 66 48 85 61 19 14 58 44 86 68 60 51 157 120 223 159 51 31 162 112 265 194 39 31 110 82 160 115 113 76 207 143 220 158 16 19 106 90 150 118 22 14 72 46 110 71 39 25 88 61 109 80 l39 34 -33 37 c-17 20 -36 37 -41 37 -5 0 -39 20 -76 45 -37 25 -71 45 -76 45 -4 0 -37 20 -71 45 -35 25 -66 45 -70 45 -6 0 -47 28 -165 111 -20 14 -43 28 -51 32 -8 4 -31 17 -50 28 -19 12 -44 22 -55 23 -24 2 -109 -53 -204 -132 -101 -84 -164 -134 -276 -217 -55 -41 -127 -98 -160 -125 -33 -28 -85 -67 -115 -88 -30 -20 -62 -43 -70 -51 -8 -8 -34 -26 -56 -41 -23 -14 -79 -61 -126 -103 -46 -43 -122 -103 -169 -134 -46 -32 -96 -70 -112 -85 -15 -15 -30 -28 -34 -28 -3 0 -45 -33 -92 -73 -48 -41 -100 -82 -116 -93 -17 -10 -65 -46 -108 -79 -44 -33 -89 -67 -100 -75 -12 -8 -50 -39 -83 -70 -34 -30 -88 -73 -120 -95 -101 -68 -149 -107 -304 -245 -16 -14 -70 -55 -120 -90 -51 -36 -120 -91 -154 -122 -69 -64 -148 -127 -262 -208 -42 -30 -84 -63 -93 -73 -21 -25 -164 -144 -217 -182 -23 -16 -61 -43 -85 -60 -23 -16 -58 -46 -79 -65 -49 -46 -118 -103 -200 -165 -70 -53 -203 -163 -279 -231 -25 -22 -95 -74 -156 -115 -60 -41 -134 -98 -165 -126 -30 -29 -58 -53 -62 -53 -4 0 -27 -17 -52 -37 -136 -115 -185 -153 -195 -153 -6 0 -11 -4 -11 -10 0 -5 -30 -34 -67 -64 -38 -30 -81 -66 -98 -81 -16 -15 -48 -36 -70 -47 -22 -11 -58 -37 -81 -57 -135 -118 -168 -147 -183 -155 -9 -5 -20 -14 -26 -20 -5 -7 -57 -50 -115 -95 -58 -46 -109 -88 -115 -95 -5 -6 -31 -27 -57 -46 -27 -18 -48 -37 -48 -41 0 -8 -177 -139 -188 -139 -4 0 -41 -34 -82 -76 -41 -41 -91 -85 -110 -97 -19 -12 -44 -30 -55 -40 -24 -23 -163 -117 -172 -117 -3 0 -39 -34 -78 -75 -40 -41 -76 -75 -81 -75 -5 0 -24 -16 -43 -35 -19 -19 -40 -35 -46 -35 -14 0 -134 -96 -230 -184 -61 -57 -182 -146 -197 -146 -5 0 -6 24 -4 53 3 28 6 79 7 112 1 33 7 89 14 125 25 124 34 175 41 230 4 30 9 64 10 75 8 52 27 168 40 245 8 47 22 128 30 180 8 52 22 133 30 180 8 47 20 123 25 170 5 47 13 96 18 110 5 14 17 70 25 125 9 55 21 123 27 150 5 28 18 104 28 170 11 66 28 146 37 178 16 52 21 57 46 57 16 0 61 -10 101 -21 39 -12 86 -23 102 -25 63 -8 95 -17 95 -24 0 -5 35 -9 78 -9 90 1 142 21 208 84 113 108 224 207 269 241 64 47 79 60 143 125 29 30 56 57 60 61 4 4 32 29 64 55 31 26 83 72 116 101 33 28 62 52 65 52 2 0 27 21 55 48 77 72 140 124 217 182 39 29 112 95 164 147 51 52 105 100 120 107 14 8 38 28 53 44 14 17 32 34 40 39 7 4 30 27 51 51 37 42 37 42 37 132 l0 90 -41 30 c-46 33 -142 80 -276 135 -48 20 -98 46 -110 57 l-22 21 27 34 c39 48 228 263 329 373 47 52 98 109 113 125 15 17 56 58 91 92 115 111 149 148 149 159 0 6 35 45 78 88 42 43 86 88 97 99 69 72 179 167 194 167 11 0 41 -15 67 -34 146 -102 242 -164 269 -171 17 -5 66 -9 110 -10 72 0 87 -4 154 -37 40 -21 83 -38 94 -38 38 0 161 93 286 217 69 68 128 123 132 123 5 0 78 69 163 153 359 353 427 418 483 460 32 25 99 87 149 138 50 52 133 130 184 174 51 44 116 106 146 138 29 31 57 57 62 57 4 0 21 14 38 31 16 17 56 52 89 77 56 43 132 110 176 156 11 11 19 25 19 32 0 7 19 27 43 46 23 18 44 36 45 41 2 4 22 20 45 36 23 16 90 76 148 133 59 56 161 148 228 203 l122 100 -5 165 c-2 91 -9 262 -15 380 -15 290 -18 440 -9 440 4 0 10 -10 12 -22z"/>
 <path d="M9006 2787 c-21 -12 -37 -26 -35 -32 5 -12 110 -8 123 5 11 11 -20 50 -38 50 -6 0 -29 -10 -50 -23z"/>
 <path d="M10447 2033 c-1 0 -2326 -4 -5166 -7 -3453 -4 -5169 -10 -5182 -17 -15 -8 -19 -21 -19 -69 0 -51 3 -62 23 -74 19 -13 142 -16 837 -22 1054 -10 888 -10 2030 1 547 5 1137 7 1310 4 303 -4 511 -4 2055 -1 385 1 784 0 887 -2 103 -2 204 0 224 4 24 6 43 5 51 -1 7 -6 45 -8 95 -5 46 3 92 5 103 6 11 0 643 0 1405 0 2415 -1 2305 -1 2323 13 26 19 27 135 1 154 -15 12 -82 14 -354 13 -184 -1 -400 0 -478 2 -79 2 -144 2 -145 1z"/>
 <path d="M4495 1750 c-183 -14 -283 -92 -381 -300 -14 -30 -38 -102 -52 -160 -22 -91 -26 -133 -29 -320 -3 -129 -1 -235 6 -265 5 -27 17 -85 25 -128 37 -184 151 -343 294 -412 85 -41 146 -49 237 -32 113 22 165 48 225 113 68 75 101 141 136 272 28 105 29 103 -113 153 -132 47 -126 48 -159 -46 -9 -27 -34 -67 -54 -88 -33 -36 -40 -39 -87 -39 -86 1 -127 32 -162 120 -37 94 -54 231 -46 382 8 143 8 147 25 224 14 70 39 106 94 140 77 48 134 36 191 -38 25 -32 65 -154 65 -196 0 -29 29 -26 113 13 40 19 88 40 107 47 67 26 72 40 44 138 -33 119 -92 253 -137 307 -33 41 -134 104 -173 109 -16 2 -40 6 -54 8 -14 3 -65 2 -115 -2z"/>
 <path d="M9665 1748 c-69 -23 -153 -71 -188 -107 -59 -63 -122 -201 -135 -299 -16 -112 -12 -119 80 -127 40 -3 102 -7 137 -8 l63 -2 19 55 c9 30 18 65 18 77 1 32 56 90 98 104 43 14 99 6 125 -17 25 -23 58 -99 58 -134 0 -35 -23 -89 -49 -117 -20 -22 -85 -55 -161 -83 -19 -8 -47 -22 -62 -32 -14 -10 -30 -18 -35 -18 -16 0 -127 -77 -154 -106 -15 -16 -44 -65 -65 -109 l-38 -80 0 -135 c-1 -110 2 -140 17 -165 9 -16 17 -36 17 -43 0 -24 62 -122 97 -152 19 -17 63 -45 96 -62 60 -31 66 -32 197 -32 132 -1 136 0 185 29 136 80 206 207 209 375 l1 54 -109 12 c-60 7 -117 15 -127 17 -28 8 -49 -15 -60 -63 -12 -54 -53 -117 -83 -126 -25 -8 -68 -8 -96 1 -28 9 -60 66 -60 107 0 50 29 80 107 112 37 15 77 32 88 37 11 4 48 20 83 34 79 32 181 111 220 170 40 61 82 236 82 343 0 80 -16 143 -68 267 -41 100 -130 184 -232 219 -51 18 -225 20 -275 4z"/>
 <path d="M2930 1741 c-8 -6 -31 -11 -51 -11 -46 0 -152 -54 -196 -99 -65 -67 -148 -286 -141 -375 l3 -41 85 -12 c47 -7 111 -15 143 -18 66 -7 65 -8 87 107 10 58 18 73 50 102 77 70 173 56 212 -30 26 -59 25 -109 -2 -166 -26 -55 -50 -72 -178 -124 -225 -89 -334 -216 -363 -421 -11 -78 -10 -102 3 -172 28 -138 88 -239 176 -296 26 -16 49 -33 52 -36 6 -8 109 -29 160 -33 55 -4 191 19 233 39 61 29 140 124 160 192 36 124 51 232 33 244 -10 7 -254 23 -262 17 -6 -5 -17 -30 -24 -56 -27 -101 -84 -148 -163 -135 -44 7 -77 55 -77 112 0 55 26 92 82 116 228 97 328 154 389 221 14 16 40 66 57 112 58 151 64 273 22 427 -30 110 -43 138 -88 199 -47 62 -93 95 -168 121 -60 20 -213 31 -234 16z"/>
 <path d="M6411 1732 c-106 -2 -170 -7 -179 -14 -11 -10 -13 -131 -11 -767 2 -434 7 -761 12 -768 7 -9 49 -13 148 -13 128 0 139 2 149 20 7 13 10 204 9 587 l-1 568 233 5 233 5 7 25 c4 14 7 96 8 183 1 118 -2 159 -11 162 -17 6 -387 11 -597 7z"/>
 <path d="M7905 1731 l-100 -6 -6 -105 c-4 -58 -7 -193 -8 -301 -1 -137 -5 -199 -13 -207 -15 -15 -275 -17 -298 -2 -13 8 -15 53 -15 302 0 161 -4 299 -8 306 -9 14 -273 17 -295 4 -10 -7 -12 -145 -11 -698 3 -874 2 -818 16 -835 17 -21 270 -20 283 1 16 26 21 124 16 322 -2 109 -1 200 4 203 5 3 77 6 161 6 116 1 154 -2 160 -13 5 -7 6 -121 3 -253 -4 -187 -2 -244 8 -258 11 -15 34 -18 150 -22 127 -5 138 -4 147 14 15 28 17 1502 2 1530 -13 23 -3 22 -196 12z"/>
 <path d="M8221 1729 c-18 -7 -22 -14 -17 -32 4 -12 16 -60 28 -107 11 -47 34 -139 50 -205 17 -66 36 -147 44 -180 61 -261 86 -360 104 -405 10 -25 21 -70 25 -100 4 -30 11 -68 15 -85 5 -16 26 -100 46 -185 20 -85 44 -175 54 -200 l16 -45 145 -5 c79 -3 151 -4 160 -2 22 5 44 58 64 157 9 44 23 98 30 120 7 22 16 58 20 80 8 49 130 560 175 735 5 19 32 127 60 240 48 193 49 206 33 218 -24 18 -283 13 -305 -6 -10 -8 -22 -53 -33 -128 -17 -107 -19 -115 -43 -121 -26 -6 -300 2 -308 10 -7 7 -32 109 -39 164 -11 87 -13 88 -167 89 -73 1 -144 -3 -157 -7z m613 -598 c5 -8 1 -36 -30 -211 -8 -47 -19 -115 -23 -151 -5 -37 -12 -72 -15 -78 -20 -31 -41 5 -56 94 -15 83 -39 206 -54 275 -8 35 -12 68 -10 72 7 11 182 10 188 -1z"/>
 <path d="M2200 1722 c-19 -2 -39 -7 -43 -11 -5 -5 -8 -259 -8 -565 1 -320 -3 -556 -8 -556 -5 0 -11 17 -14 38 -3 20 -12 82 -21 137 -9 55 -19 125 -23 155 -3 30 -9 60 -13 65 -4 6 -11 48 -14 95 -4 47 -16 132 -27 190 -11 58 -24 141 -29 185 -6 44 -13 87 -16 95 -3 8 -8 44 -11 80 -3 44 -10 69 -21 78 -10 8 -51 12 -113 12 -65 0 -100 -4 -107 -12 -12 -16 -19 -48 -37 -170 -8 -51 -19 -115 -26 -143 -6 -27 -15 -77 -19 -110 -22 -155 -33 -225 -45 -290 -8 -38 -19 -108 -25 -155 -15 -106 -18 -120 -33 -120 -9 0 -11 118 -9 492 3 397 1 493 -10 499 -7 5 -61 9 -119 9 -83 0 -109 -3 -119 -15 -10 -12 -12 -84 -10 -308 2 -160 3 -503 2 -762 -1 -390 1 -472 12 -484 11 -11 52 -13 192 -12 98 0 181 4 184 9 12 15 31 82 40 143 5 35 20 129 34 209 13 80 30 179 37 220 6 41 13 84 15 95 10 58 26 174 27 198 3 51 22 32 33 -33 7 -36 17 -90 23 -120 12 -61 61 -355 92 -555 12 -71 25 -137 30 -147 9 -16 27 -18 179 -18 93 0 180 4 195 10 l26 10 -3 540 c-2 298 -1 543 1 546 9 8 0 458 -8 467 -9 9 -131 14 -191 9z"/>
 <path d="M5045 1721 c-3 -6 2 -38 10 -73 9 -35 20 -83 25 -108 5 -25 23 -99 41 -165 17 -66 37 -147 44 -180 8 -33 16 -69 19 -80 2 -11 19 -78 36 -150 17 -71 45 -184 62 -250 17 -66 39 -158 49 -205 10 -47 23 -103 29 -125 6 -22 19 -75 29 -117 26 -114 19 -110 194 -106 126 2 151 6 161 20 11 15 46 149 86 323 6 28 15 66 21 85 6 19 14 55 19 80 13 72 89 387 115 480 13 47 27 103 31 125 3 22 12 63 20 90 69 254 87 332 80 350 -4 13 -31 15 -160 15 -85 0 -157 -3 -159 -7 -3 -5 -13 -55 -22 -113 -10 -58 -22 -113 -27 -122 -8 -16 -26 -18 -163 -18 -186 0 -182 -2 -199 105 -2 17 -10 57 -18 90 l-13 60 -152 3 c-91 1 -154 -1 -158 -7z m621 -591 c12 -12 -10 -136 -82 -479 -8 -38 -21 -12 -33 64 -15 92 -37 213 -56 300 -8 38 -15 82 -15 97 l0 28 88 0 c48 0 93 -5 98 -10z"/>
 <path d="M10436 1443 c-13 -13 -6 -160 8 -172 9 -8 143 -10 477 -6 255 2 469 4 476 4 30 2 40 30 36 93 -3 35 -9 67 -14 73 -11 11 -972 18 -983 8z"/>
 <path d="M102 1422 c-14 -10 -32 -65 -32 -103 0 -14 8 -33 19 -43 16 -15 66 -17 498 -22 409 -4 482 -2 492 10 8 9 11 41 9 88 l-3 73 -485 2 c-267 2 -491 -1 -498 -5z"/>
 <path d="M10445 841 c-3 -2 -5 -39 -5 -81 0 -55 4 -81 14 -89 11 -9 132 -11 481 -9 l467 4 19 23 c25 30 25 101 2 130 -18 21 -24 21 -496 24 -263 2 -480 1 -482 -2z"/>
 <path d="M102 804 c-18 -12 -22 -25 -22 -68 0 -36 6 -61 18 -75 17 -22 20 -22 493 -28 460 -5 477 -5 482 13 3 11 8 49 12 86 6 60 4 68 -14 77 -13 7 -172 11 -483 11 -403 0 -466 -2 -486 -16z"/>
 </g>

</svg>